<svg width="100" height="100" viewBox="0 0 100 100" fill="none" xmlns="http://www.w3.org/2000/svg">
<rect width="100" height="100" rx="50" fill="#111111"/>
<path d="M29.8125 83V82.625L35.1094 79.3438V19.4375L29.8125 16.2031V15.7812H57.6562V16.2031L49.5 19.4375V76.2969H58.7344C65.4531 76.2969 70.0938 71.8125 72.6562 62.8438H73.0312V83H29.8125Z" fill="#F29B18"/>
<rect x="14" y="62.1285" width="23" height="16" rx="5" fill="#E34D4D"/>
<path d="M19.875 71.9908V70.2477H24.3047V71.9908H19.875ZM28.0303 75.1285V67.1578H27.9893L25.4736 68.8668V67.0348L28.0234 65.2643H30.0742V75.1285H28.0303Z" fill="#910808"/>
<rect x="57" y="20" width="29" height="16" rx="5" fill="#69E94A"/>
<path d="M62.8203 29.8623V28.1191H65.6572V25.4873H67.4004V28.1191H70.2441V29.8623H67.4004V32.4873H65.6572V29.8623H62.8203ZM76.4648 33V31.1885H71.5566V29.4658L75.5146 23.1357H78.4268V29.541H79.7256V31.1885H78.4268V33H76.4648ZM73.3545 29.5957H76.5059V24.626H76.458L73.3545 29.541V29.5957Z" fill="#297422"/>
</svg>
